<svg xmlns="http://www.w3.org/2000/svg" viewBox="0 0 62.59 78"><defs><style>.cls-1{fill:#fff;}</style></defs><g id="Capa_2" data-name="Capa 2"><g id="Capa_1-2" data-name="Capa 1"><path class="cls-1" d="M60.1,55.13h-.71V65a14.39,14.39,0,0,1-.6,4.22c-.49,1.64-2,5.42-5.62,5.42h-.83v0L41,74.84c-3.39,0-5-1.72-5.06-5.39h.68c3.42,0,13.82,0,13.82-8a6.23,6.23,0,0,0-2.6-5.22,9,9,0,0,0-5.3-1.62,8.32,8.32,0,0,0-6.27,2.79l-.33.38V55.13H32.7V69.3c0,5.61,2.91,8.7,8.19,8.7l12.48-.14h.81v0a7.43,7.43,0,0,0,5.21-3.33V77.9h3.2V55.13H60.1ZM35.9,66.37v-.43c0-4,2.49-8.24,6.51-8.24,3.08,0,4.7,2,4.7,3.89,0,4.21-5.35,4.78-10.57,4.78Z"/><path class="cls-1" d="M27.41,55.13h-.72v2.66l-.33-.38a8.32,8.32,0,0,0-6.27-2.79,9,9,0,0,0-5.29,1.62,6.2,6.2,0,0,0-2.6,5.22c0,8,10.39,8,13.81,8h.68c-.06,3.67-1.67,5.39-5.07,5.39l-11.4-.21v0h-.8c-3.61,0-5.13-3.78-5.61-5.4A14.29,14.29,0,0,1,3.21,65V55.13H0V77.9H3.21V74.48a7.41,7.41,0,0,0,5.2,3.33v0h.76L21.69,78c5.3,0,8.21-3.09,8.21-8.7V55.13H27.41Zm-.72,10.81v.43h-.64c-5.22,0-10.56-.57-10.56-4.78,0-1.93,1.61-3.89,4.69-3.89C24.2,57.7,26.69,62,26.69,65.94Z"/><path class="cls-1" d="M62.55,26.38a6.86,6.86,0,0,0-2.45-4.53L35.73,1.62A6.93,6.93,0,0,0,31.3,0a6.75,6.75,0,0,0-4.36,1.59L2.5,21.82A6.8,6.8,0,0,0,.05,26.37H0V53H3.21V43.19A14.06,14.06,0,0,1,3.81,39c.48-1.64,2-5.42,5.61-5.42h.8l11.41-.21c3.39,0,5,1.71,5.06,5.39H26c-3.42,0-13.81,0-13.81,8a6.22,6.22,0,0,0,2.6,5.23,9,9,0,0,0,5.29,1.61,8.28,8.28,0,0,0,6.27-2.79l.33-.38V53H29.9V38.87c0-5.61-2.91-8.71-8.2-8.71l-12.47.15H8.41v0a7.42,7.42,0,0,0-5.2,3.34V27a3.58,3.58,0,0,1,1.31-2.71L29,4a3.63,3.63,0,0,1,2.33-.85,3.74,3.74,0,0,1,2.39.89L58.08,24.29a3.69,3.69,0,0,1,1.31,2.82v6.58a7.44,7.44,0,0,0-5.21-3.34v0h-.76L40.9,30.16c-5.29,0-8.2,3.1-8.2,8.71V53h3.2V50.37l.33.38a8.28,8.28,0,0,0,6.27,2.79,9,9,0,0,0,5.3-1.61,6.25,6.25,0,0,0,2.6-5.23c0-8-10.4-8-13.82-8H35.9C36,35,37.57,33.33,41,33.33l11.36.2v0h.83c3.61,0,5.13,3.78,5.61,5.41a14.17,14.17,0,0,1,.61,4.23V53h3.2V26.39ZM20.18,50.46c-3.08,0-4.69-2-4.69-3.89,0-4.21,5.34-4.77,10.56-4.77h.64v.42C26.69,46.18,24.2,50.46,20.18,50.46ZM35.9,41.8h.64c5.22,0,10.57.56,10.57,4.77,0,1.94-1.62,3.89-4.7,3.89-4,0-6.51-4.28-6.51-8.24Z"/></g></g></svg>