<svg xmlns="http://www.w3.org/2000/svg" viewBox="0 0 88.12 62.42"><defs><style>.cls-1{fill:#fff;}</style></defs><g id="Capa_2" data-name="Capa 2"><g id="Capa_1-2" data-name="Capa 1"><path class="cls-1" d="M45.37,16.55c-6.9,0-13.66.3-19.62.85-4.39-4-10.22-9.32-18-16.33a5.22,5.22,0,0,0-4-1A4.59,4.59,0,0,0,.69,2.43,5.17,5.17,0,0,0,2.26,9.21L12.48,19.33c-8.61,1.93-9.86,4.28-9.86,6.2a3,3,0,0,0,.26,1l-.28.05A43.3,43.3,0,0,0,45.35,62.42,43.51,43.51,0,0,0,87.89,27.65l-.59-.12a3.29,3.29,0,0,0,.82-2C88.12,17,52.51,16.55,45.37,16.55Zm0,4.28c22.5,0,35.3,2.9,38.09,4.7-2.79,1.8-15.59,4.71-38.09,4.71-2.31,0-4.46,0-6.57-.11-.59-.95-2.54-3-8.78-8.79C34.84,21,40.06,20.83,45.37,20.83ZM4.62,4.27c.1,0,.37.09.41.09H5C14,12.41,27.42,24.69,32.85,29.88c-1.33-.07-2.64-.15-3.87-.24L5.05,6S4,5.18,4.62,4.27ZM16.15,23l6.08,6C14,28,9,26.59,7.31,25.55,8.2,25,10.54,24,16.15,23Zm29.2,35.19A39,39,0,0,1,7.93,30.38c10.19,3.87,32,4.13,37.44,4.13s27.21-.26,37.41-4.12A39.23,39.23,0,0,1,45.35,58.15Z"/></g></g></svg>