<?xml version="1.0" encoding="utf-8"?>
<!-- Generator: Adobe Illustrator 25.2.3, SVG Export Plug-In . SVG Version: 6.00 Build 0)  -->
<svg version="1.1" id="Capa_1" xmlns="http://www.w3.org/2000/svg" xmlns:xlink="http://www.w3.org/1999/xlink" x="0px" y="0px"
	 viewBox="0 0 227 23" style="enable-background:new 0 0 227 23;" xml:space="preserve">
<style type="text/css">
	.st0{fill:#101820;}
</style>
<g>
	<polygon class="st0" points="76.3,17.8 76.3,17.8 68.7,0.3 64.7,0.3 64.7,22.7 67.4,22.7 67.4,3.9 67.5,3.9 75.5,22.7 77.1,22.7 
		85.1,3.9 85.1,3.9 85.1,22.7 87.8,22.7 87.8,0.3 83.9,0.3 	"/>
	<polygon class="st0" points="106.1,12.3 106.1,9.8 106.1,2.8 117.5,2.8 117.5,0.3 103.4,0.3 103.4,22.7 117.5,22.7 117.5,20.2 
		106.1,20.2 	"/>
	<path class="st0" d="M145.4,10.5c1-1,1.5-2.3,1.5-4c0-1.4-0.3-2.5-0.8-3.3c-0.5-0.8-1.2-1.4-2-1.8c-0.8-0.4-1.8-0.7-2.9-0.8
		c-1.1-0.1-2.1-0.2-3.2-0.2h-6.1l0,2.5h6.9c0.7,0,1.3,0,1.9,0.1c0.6,0.1,1.2,0.3,1.7,0.5c0.5,0.3,0.9,0.6,1.2,1.1
		c0.3,0.5,0.5,1.1,0.5,1.9c0,0.9-0.2,1.6-0.6,2.1c-0.4,0.5-1,0.9-1.6,1.1c-0.7,0.2-1.4,0.4-2.2,0.4c-0.8,0-1.5,0.1-2.2,0.1h-1.4
		h-3.7h-22.2v2.4h22.2v10h2.6v-10h3.4l6.1,10h3.2l-6.3-10.3C143,12.1,144.4,11.5,145.4,10.5z"/>
	<path class="st0" d="M48.4,10.5c1-1,1.5-2.3,1.5-4c0-1.4-0.3-2.5-0.8-3.3c-0.5-0.8-1.2-1.4-2-1.8c-0.8-0.4-1.8-0.7-2.9-0.8
		S42.1,0.3,41,0.3h-6.1l0,2.5h6.9c0.7,0,1.3,0,1.9,0.1c0.6,0.1,1.2,0.3,1.7,0.5c0.5,0.3,0.9,0.6,1.2,1.1c0.3,0.5,0.5,1.1,0.5,1.9
		c0,0.9-0.2,1.6-0.6,2.1c-0.4,0.5-1,0.9-1.6,1.1c-0.7,0.2-1.4,0.4-2.2,0.4c-0.8,0-1.5,0.1-2.2,0.1l-31.6,0l2.7-6.4h0.1l1.6,4H16
		l-3.1-7.4h-2.5L0.5,22.7h3l2.3-5.5l1.9-4.6h5.4v0h2l4.1,10h3.1l-4.3-10h17.3v10H38v-10h3.4l6.1,10h3.2l-6.3-10.3
		C46.1,12.1,47.4,11.5,48.4,10.5z"/>
	<rect x="193.9" y="0.3" class="st0" width="2.6" height="22.3"/>
	<polygon class="st0" points="211.3,0.3 207.5,0.3 196.8,10.5 208,22.7 211.9,22.7 200.3,10.5 	"/>
	<rect x="223.9" y="0.3" class="st0" width="2.6" height="22.3"/>
	<polygon class="st0" points="167.2,10.2 170,3.7 170,3.7 171.6,7.7 174.4,7.7 171.3,0.3 168.8,0.3 159,22.7 162,22.7 164.3,17.2 
		166.2,12.6 173.6,12.6 177.7,22.7 180.8,22.7 175.5,10.2 	"/>
</g>
</svg>
