<svg xmlns="http://www.w3.org/2000/svg" viewBox="0 0 371.24 54"><defs><style>.cls-1{fill:#fff;}</style></defs><g id="Capa_2" data-name="Capa 2"><g id="Capa_1-2" data-name="Capa 1"><path class="cls-1" d="M256.85,17.08V11.86A12.17,12.17,0,0,0,254,3.37Q250.93,0,245,0c-3.85,0-6.84,1.13-8.91,3.37a12.11,12.11,0,0,0-2.83,8.37v5.33a10.57,10.57,0,0,0-8.5,10.35v16A10.57,10.57,0,0,0,235.31,54h19.4a10.58,10.58,0,0,0,10.56-10.56v-16A10.57,10.57,0,0,0,256.85,17.08ZM238.26,5.36c1.48-1.6,3.75-2.42,6.85-2.42s5.25.81,6.73,2.41a9.27,9.27,0,0,1,2.07,6.39v5.12H236.2V11.62A9.13,9.13,0,0,1,238.26,5.36Zm24.07,38.08a7.63,7.63,0,0,1-7.62,7.62h-19.4a7.63,7.63,0,0,1-7.62-7.62v-16a7.63,7.63,0,0,1,7.62-7.62h19.4a7.63,7.63,0,0,1,7.62,7.62Z"/><path class="cls-1" d="M132.43,16.92c-4.75,0-9.39.21-13.49.58-3-2.76-7-6.4-12.36-11.22a3.65,3.65,0,0,0-2.73-.68,3.16,3.16,0,0,0-2.13,1.61,3.54,3.54,0,0,0,1.07,4.66l7,7c-5.92,1.33-6.78,3-6.78,4.26a1.9,1.9,0,0,0,.18.67l-.19,0a29.84,29.84,0,0,0,58.63.75l-.41-.08a2.24,2.24,0,0,0,.56-1.38C161.81,17.22,137.33,16.92,132.43,16.92Zm0,2.94c15.46,0,24.26,2,26.18,3.23-1.92,1.24-10.72,3.24-26.18,3.24-1.59,0-3.07,0-4.52-.07-.4-.66-1.75-2.06-6-6.05C125.19,20,128.78,19.86,132.43,19.86Zm-28-11.38c.06,0,.25.06.28.06h0c6.13,5.53,15.39,14,19.12,17.55l-2.66-.17L104.71,9.65S104,9.11,104.42,8.48Zm7.92,12.85,4.18,4.13c-5.64-.68-9.12-1.64-10.26-2.35C106.88,22.73,108.48,22,112.34,21.33Zm20.07,24.19a26.83,26.83,0,0,1-25.72-19.09c7,2.66,22,2.84,25.74,2.84s18.7-.18,25.72-2.83A27,27,0,0,1,132.41,45.52Z"/><path class="cls-1" d="M27.7,19.59a11.16,11.16,0,0,0-6.92,2.69V13.52l.34-1.11c.93-3,.62-9.27-7.19-11.72l-2-.65L12,2.19c0,.34.6,7.77,5.81,10.56v15H18a7.24,7.24,0,0,0-.07,1v4.3a8.52,8.52,0,0,0-5.82-2c-4.51,0-6.39-3.48-7.14-5.78A8.06,8.06,0,0,0,7.17,20.6c.28-2.75-.82-5.62-3.28-8.55l-1.5-1.77-1,2.11c-.14.32-3.32,7.46.33,12.41.77,3.71,3.62,9.27,10.32,9.27a5.53,5.53,0,0,1,4.26,1.57,7.22,7.22,0,0,1,1.57,4.6v.59a1.62,1.62,0,0,0,0,.18V54h2.94v-5h0c0-.49,0-4,0-8,0-.17,0-.45,0-.79,0-5.41,0-11.31,0-11.33a6.27,6.27,0,0,1,1.69-4.16c1.41-1.46,3.64-2.19,6.62-2.19v-.05h.24a8.11,8.11,0,0,0,5.11-1.84c2.12-1.76,3.34-4.59,3.63-8.39l.18-2.32-2.17.83C35.8,10.8,28.66,13.62,27.7,19.59ZM3.26,16.27a7,7,0,0,1,1,4,5.12,5.12,0,0,1-.63,2A9.32,9.32,0,0,1,3.26,16.27ZM15.44,4.54a6,6,0,0,1,3.1,5.2A9.61,9.61,0,0,1,15.44,4.54ZM32.65,18.26a5.26,5.26,0,0,1-1.85,1,9.26,9.26,0,0,1,3.92-4.52A7,7,0,0,1,32.65,18.26Z"/><path class="cls-1" d="M369.52,38.09H369v6.76a9.89,9.89,0,0,1-.41,2.91c-.34,1.12-1.38,3.72-3.86,3.72h-.57l-7.82.14c-2.33,0-3.44-1.17-3.48-3.7h.47c2.34,0,9.49,0,9.49-5.49a4.3,4.3,0,0,0-1.78-3.59,6.19,6.19,0,0,0-3.65-1.11,5.67,5.67,0,0,0-4.3,1.92,2.85,2.85,0,0,0-.23.26V38.09h-2.2v9.74c0,3.85,2,6,5.63,6l8.58-.1h.56v0A5.09,5.09,0,0,0,369,51.39v2.35h2.21V38.09h-1.72Zm-16.63,7.72v-.29c0-2.72,1.71-5.66,4.48-5.66,2.11,0,3.22,1.34,3.22,2.67,0,2.89-3.67,3.28-7.26,3.28Z"/><path class="cls-1" d="M347.05,38.09h-.49v1.83c-.08-.09-.15-.18-.23-.26A5.69,5.69,0,0,0,342,37.74a6.16,6.16,0,0,0-3.64,1.11,4.29,4.29,0,0,0-1.79,3.59c0,5.49,7.15,5.49,9.5,5.49h.47c0,2.53-1.15,3.7-3.49,3.7l-7.84-.14h-.54c-2.49,0-3.53-2.6-3.86-3.72a9.88,9.88,0,0,1-.42-2.91V38.09h-2.2V53.74h2.2V51.39A5.11,5.11,0,0,0,334,53.68v0h.52l8.61.1c3.64,0,5.64-2.13,5.64-6V38.09h-1.71Zm-.49,7.43v.29h-.44c-3.59,0-7.27-.39-7.27-3.28,0-1.33,1.11-2.67,3.23-2.67C344.85,39.86,346.56,42.8,346.56,45.52Z"/><path class="cls-1" d="M371.2,18.33a4.67,4.67,0,0,0-1.68-3.12L352.77,1.3a4.81,4.81,0,0,0-3-1.11,4.66,4.66,0,0,0-3,1.09l-16.8,13.91a4.67,4.67,0,0,0-1.69,3.13h0V36.65h2.2V29.88a9.81,9.81,0,0,1,.42-2.9c.33-1.13,1.37-3.72,3.86-3.72h.55v0l7.85-.14c2.33,0,3.44,1.18,3.48,3.7h-.47c-2.35,0-9.5,0-9.5,5.49a4.31,4.31,0,0,0,1.79,3.6A6.23,6.23,0,0,0,342,37a5.73,5.73,0,0,0,4.31-1.92c.08-.09.15-.18.23-.26v1.83h2.2V26.91c0-3.86-2-6-5.63-6l-8.58.09H334v0a5.15,5.15,0,0,0-3.58,2.3V18.74a2.52,2.52,0,0,1,.91-1.87L348.13,3a2.46,2.46,0,0,1,1.59-.59,2.59,2.59,0,0,1,1.65.61l16.76,13.91a2.49,2.49,0,0,1,.9,1.94v4.52a5.14,5.14,0,0,0-3.57-2.3v0h-.53l-8.61-.09c-3.63,0-5.63,2.12-5.63,6v9.74h2.2V34.82l.23.26a5.7,5.7,0,0,0,4.3,1.92,6.26,6.26,0,0,0,3.65-1.11,4.32,4.32,0,0,0,1.78-3.6c0-5.49-7.15-5.49-9.49-5.49h-.47c0-2.52,1.15-3.7,3.49-3.7l7.81.14h.57c2.48,0,3.52,2.59,3.86,3.71a9.93,9.93,0,0,1,.41,2.91v6.77h2.21V18.33ZM342.08,34.88c-2.12,0-3.23-1.35-3.23-2.67,0-2.9,3.68-3.29,7.27-3.29h.44v.29C346.56,31.94,344.85,34.88,342.08,34.88Zm10.81-6h.44c3.59,0,7.26.39,7.26,3.29,0,1.32-1.11,2.67-3.22,2.67-2.77,0-4.48-2.94-4.48-5.67Z"/></g></g></svg>